<svg width="513" height="198" viewBox="0 0 513 198" fill="none" xmlns="http://www.w3.org/2000/svg">
<path d="M71.6693 98.3784H90.436C87.6813 108.882 82.4294 116.888 74.68 122.397C66.9294 128.161 57.1627 131.043 45.4093 131.043C31.1267 131.043 20.0147 126.4 12.0093 117.145C4.00268 108.146 0 95.2722 0 78.4914C0 62.4799 3.87466 49.9892 11.624 40.9919C19.6307 31.7359 30.7747 27.0932 45.0253 27.0932C60.0453 27.0932 71.6693 31.6079 79.932 40.6066C84.4147 46.1159 87.6813 52.4879 89.6667 59.7572H63.408C62.1587 57.2279 60.9093 55.3386 59.66 54.0892C56.3933 50.5666 51.7827 48.8052 45.7627 48.8052C40.2867 48.8052 35.7707 50.5666 32.28 54.0573C27.7653 59.0852 25.5227 67.3471 25.5227 78.8758C25.5227 90.4044 27.7653 98.5388 32.28 103.31C35.5147 107.313 40.3814 109.331 46.9147 109.331C51.1413 109.331 54.7933 108.434 57.7707 106.673C58.54 106.449 59.212 106 59.8534 105.36C60.4614 104.751 61.1653 104.047 61.9027 103.278C62.4147 102.542 63.408 101.517 64.912 100.268C66.4174 99.019 68.66 98.3784 71.6693 98.3784ZM163.995 98.3784H182.761C180.008 108.882 174.756 116.888 167.005 122.397C159.256 128.161 149.488 131.043 137.735 131.043C123.453 131.043 112.34 126.4 104.335 117.145C96.328 108.146 92.3253 95.2722 92.3253 78.4914C92.3253 62.4799 96.2 49.9892 103.951 40.9919C111.956 31.7359 123.1 27.0932 137.351 27.0932C152.371 27.0932 163.995 31.6079 172.257 40.6066C176.741 46.1159 180.008 52.4879 181.993 59.7572H155.733C154.484 57.2279 153.235 55.3386 151.987 54.0892C148.72 50.5666 144.108 48.8052 138.088 48.8052C132.612 48.8052 128.096 50.5666 124.605 54.0573C120.091 59.0852 117.848 67.3471 117.848 78.8758C117.848 90.4044 120.091 98.5388 124.605 103.31C127.84 107.313 132.708 109.331 139.241 109.331C143.468 109.331 147.119 108.434 150.096 106.673C150.865 106.449 151.537 106 152.179 105.36C152.787 104.751 153.491 104.047 154.228 103.278C154.74 102.542 155.733 101.517 157.239 100.268C158.744 99.019 160.985 98.3784 163.995 98.3784ZM199.317 120.123C194.067 115.608 190.319 109.555 188.045 101.901C185.804 94.2795 184.683 86.3372 184.683 78.0752C184.683 71.3186 185.612 64.5612 187.501 57.8039C189.359 51.0466 192.304 45.4426 196.308 40.9279C202.808 33.4332 211.199 28.9826 221.447 27.6052C231.727 26.2279 240.981 27.0292 249.244 30.0386C258.723 33.7866 265.736 40.3186 270.251 49.5732C274.511 57.8039 276.624 67.443 276.624 78.4596C276.624 86.4654 275.76 93.3508 273.999 99.0831C272.236 104.847 269.995 109.747 267.241 113.75C261.252 121.98 253.599 127.104 244.344 129.122C236.081 131.363 227.788 131.556 219.397 129.698C211.007 127.809 204.313 124.606 199.317 120.123ZM217.284 54.0573C212.032 59.8212 209.661 68.4039 210.175 79.7727C210.655 91.1414 212.8 99.0831 216.547 103.599C218.052 105.616 220.677 107.281 224.424 108.658C228.172 110.035 231.983 110.163 235.857 109.042C239.732 107.922 243.191 105.103 246.201 100.588C249.179 96.105 250.812 88.8352 251.069 78.8435C251.069 69.8128 249.628 63.0559 246.745 58.5732C243.863 54.0572 240.565 51.1746 236.819 49.9266C233.071 48.6772 229.292 48.6132 225.545 49.7346C221.799 50.8866 219.044 52.3279 217.284 54.0573Z" fill="#175974"/>
<path d="M367.764 129.122H354.603C350.856 129.122 347.781 127.937 345.412 125.567C343.009 123.165 341.824 120.123 341.824 116.344V65.2976C341.824 59.3092 340.032 54.9226 336.412 52.1679C332.795 49.4132 328.727 48.0372 324.244 48.0372C319.76 48.0372 315.789 49.4132 312.299 52.1679C308.808 54.9226 307.047 59.3092 307.047 65.2976V129.122H280.723V70.6138C280.723 53.6092 285.175 42.2092 294.045 36.4759C302.916 30.7119 312.747 27.6052 323.508 27.0932C334.491 27.0932 344.644 29.9759 353.899 35.7079C363.153 41.4719 367.764 53.0972 367.764 70.6138V129.122ZM441.356 98.3784H460.121C457.368 108.882 452.116 116.888 444.365 122.397C436.616 128.161 426.849 131.043 415.096 131.043C400.845 131.043 389.669 126.4 381.663 117.145C373.625 108.146 369.621 95.2722 369.621 78.4914C369.621 62.4799 373.497 49.9892 381.279 40.9919C389.317 31.7359 400.461 27.0932 414.712 27.0932C429.731 27.0932 441.356 31.5759 449.617 40.5759C457.624 49.7986 461.627 62.6719 461.627 79.1643C461.627 80.1566 461.627 81.0216 461.627 81.758C461.627 82.5263 461.627 83.0071 461.627 83.2632C461.627 84.5123 461.499 85.3768 461.243 85.8894H396.331C396.587 93.7028 398.444 99.4992 401.967 103.278C405.2 107.313 410.1 109.331 416.601 109.331C420.86 109.331 424.479 108.434 427.489 106.673C428.227 106.449 428.931 106 429.539 105.36C430.179 104.751 430.852 104.047 431.62 103.278C431.844 102.542 432.805 101.517 434.407 100.268C436.04 99.019 438.377 98.3784 441.356 98.3784ZM396.331 68.9804H434.599C434.119 62.2559 432.357 57.2599 429.347 54.0252C426.112 50.5346 421.469 48.8052 415.48 48.8052C409.972 48.8052 405.457 50.5346 401.967 54.0252C398.444 57.5159 396.587 62.5119 396.331 68.9804ZM510.144 129.122C501.881 129.634 492.947 129.506 483.308 128.737C473.668 128.001 468.832 121.852 468.832 110.356V-9.15527e-05H482.379C485.613 -9.15527e-05 488.496 1.24924 491.025 3.74791C493.523 6.24524 494.772 9.22391 494.772 12.7466V29.5906H510.144V34.8746C510.144 38.6212 508.895 41.6959 506.397 44.0652C503.899 46.4679 500.889 47.6519 497.399 47.6519H494.772V103.15C494.772 107.41 497.269 109.523 502.265 109.523H510.144V129.122Z" fill="#0D94A6"/>
<path d="M253.389 197.333C250.695 197.333 248.069 197.02 245.512 196.396C242.955 195.771 240.895 194.99 239.333 194.053L242.671 186.439C244.155 187.337 245.892 188.05 247.884 188.577C249.875 189.104 251.827 189.367 253.74 189.367C255.615 189.367 256.912 189.172 257.635 188.782C258.357 188.391 258.719 187.864 258.719 187.2C258.719 186.576 258.377 186.117 257.693 185.824C257.011 185.531 256.112 185.307 254.999 185.151C253.887 184.994 252.667 184.818 251.339 184.624C250.012 184.428 248.675 184.165 247.327 183.833C245.98 183.501 244.751 182.993 243.637 182.31C242.524 181.627 241.636 180.7 240.972 179.528C240.309 178.357 239.977 176.873 239.977 175.077C239.977 173.047 240.572 171.241 241.763 169.66C242.955 168.079 244.701 166.829 247.005 165.912C249.308 164.994 252.12 164.536 255.439 164.536C257.664 164.536 259.919 164.76 262.203 165.209C264.487 165.658 266.411 166.331 267.972 167.229L264.633 174.785C263.072 173.886 261.511 173.272 259.948 172.94C258.387 172.607 256.903 172.442 255.497 172.442C253.623 172.442 252.305 172.657 251.544 173.086C250.783 173.515 250.401 174.042 250.401 174.667C250.401 175.292 250.733 175.771 251.397 176.102C252.061 176.434 252.949 176.688 254.063 176.863C255.175 177.039 256.395 177.215 257.723 177.391C259.051 177.566 260.387 177.83 261.735 178.181C263.081 178.533 264.311 179.05 265.424 179.733C266.537 180.416 267.425 181.334 268.089 182.486C268.753 183.638 269.084 185.112 269.084 186.908C269.084 188.86 268.489 190.617 267.299 192.178C266.108 193.74 264.351 194.99 262.027 195.927C259.704 196.864 256.824 197.333 253.389 197.333ZM273.887 196.805V165.062H285.015V196.805H273.887ZM279.451 161.549C277.42 161.549 275.78 160.983 274.531 159.85C273.281 158.717 272.657 157.312 272.657 155.633C272.657 153.954 273.281 152.549 274.531 151.416C275.78 150.284 277.42 149.718 279.451 149.718C281.481 149.718 283.121 150.255 284.371 151.328C285.62 152.402 286.244 153.778 286.244 155.457C286.244 157.214 285.629 158.669 284.4 159.821C283.169 160.973 281.52 161.549 279.451 161.549ZM303.756 197.333C301.061 197.333 298.436 197.02 295.879 196.396C293.321 195.771 291.261 194.99 289.7 194.053L293.039 186.439C294.523 187.337 296.259 188.05 298.251 188.577C300.241 189.104 302.193 189.367 304.108 189.367C305.981 189.367 307.279 189.172 308.001 188.782C308.724 188.391 309.085 187.864 309.085 187.2C309.085 186.576 308.744 186.117 308.06 185.824C307.377 185.531 306.479 185.307 305.367 185.151C304.253 184.994 303.033 184.818 301.705 184.624C300.379 184.428 299.041 184.165 297.695 183.833C296.347 183.501 295.117 182.993 294.005 182.31C292.892 181.627 292.003 180.7 291.34 179.528C290.676 178.357 290.344 176.873 290.344 175.077C290.344 173.047 290.94 171.241 292.131 169.66C293.321 168.079 295.069 166.829 297.372 165.912C299.676 164.994 302.487 164.536 305.805 164.536C308.032 164.536 310.287 164.76 312.569 165.209C314.853 165.658 316.777 166.331 318.339 167.229L315 174.785C313.439 173.886 311.877 173.272 310.315 172.94C308.753 172.607 307.269 172.442 305.864 172.442C303.991 172.442 302.672 172.657 301.911 173.086C301.149 173.515 300.769 174.042 300.769 174.667C300.769 175.292 301.1 175.771 301.764 176.102C302.428 176.434 303.317 176.688 304.429 176.863C305.543 177.039 306.763 177.215 308.089 177.391C309.417 177.566 310.755 177.83 312.101 178.181C313.448 178.533 314.679 179.05 315.791 179.733C316.904 180.416 317.792 181.334 318.456 182.486C319.12 183.638 319.452 185.112 319.452 186.908C319.452 188.86 318.856 190.617 317.665 192.178C316.475 193.74 314.717 194.99 312.395 195.927C310.071 196.864 307.192 197.333 303.756 197.333ZM338.427 197.333C334.367 197.333 331.204 196.327 328.939 194.316C326.675 192.305 325.543 189.27 325.543 185.21V157.976H336.669V185.092C336.669 186.224 336.983 187.113 337.608 187.757C338.232 188.401 339.032 188.723 340.008 188.723C341.336 188.723 342.468 188.391 343.405 187.728L346.157 195.517C345.22 196.142 344.069 196.601 342.703 196.893C341.336 197.186 339.911 197.333 338.427 197.333ZM320.916 174.55V166.234H343.932V174.55H320.916ZM366.129 197.333C362.38 197.333 359.111 196.62 356.319 195.195C353.527 193.769 351.36 191.817 349.819 189.338C348.276 186.859 347.505 184.038 347.505 180.875C347.505 177.713 348.256 174.892 349.76 172.412C351.263 169.934 353.341 168 355.997 166.614C358.652 165.228 361.639 164.536 364.957 164.536C368.081 164.536 370.932 165.169 373.508 166.439C376.085 167.707 378.135 169.572 379.657 172.031C381.18 174.491 381.941 177.478 381.941 180.992C381.941 181.383 381.923 181.832 381.884 182.34C381.844 182.847 381.805 183.315 381.767 183.745H356.641V177.888H375.851L371.633 179.528C371.673 178.084 371.409 176.835 370.844 175.78C370.277 174.726 369.496 173.906 368.5 173.32C367.505 172.735 366.344 172.442 365.016 172.442C363.689 172.442 362.527 172.735 361.532 173.32C360.536 173.906 359.765 174.736 359.217 175.809C358.672 176.883 358.399 178.142 358.399 179.587V181.285C358.399 182.847 358.72 184.195 359.364 185.326C360.008 186.459 360.936 187.327 362.145 187.933C363.357 188.538 364.801 188.84 366.48 188.84C368.041 188.84 369.379 188.616 370.492 188.167C371.605 187.718 372.708 187.025 373.801 186.088L379.657 192.178C378.135 193.858 376.26 195.136 374.035 196.015C371.809 196.893 369.175 197.333 366.129 197.333ZM428.444 164.536C430.903 164.536 433.099 165.033 435.032 166.029C436.965 167.024 438.487 168.557 439.6 170.626C440.713 172.696 441.269 175.37 441.269 178.65V196.805H430.141V180.465C430.141 178.201 429.712 176.551 428.853 175.516C427.995 174.482 426.823 173.964 425.339 173.964C424.285 173.964 423.328 174.218 422.469 174.726C421.611 175.234 420.947 176.004 420.479 177.039C420.009 178.074 419.775 179.411 419.775 181.051V196.805H408.648V180.465C408.648 178.201 408.228 176.551 407.389 175.516C406.549 174.482 405.368 173.964 403.845 173.964C402.752 173.964 401.787 174.218 400.947 174.726C400.107 175.234 399.443 176.004 398.955 177.039C398.467 178.074 398.223 179.411 398.223 181.051V196.805H387.095V165.062H397.696V173.906L395.588 171.388C396.759 169.123 398.36 167.415 400.391 166.263C402.42 165.111 404.684 164.536 407.184 164.536C410.033 164.536 412.543 165.267 414.709 166.731C416.876 168.196 418.331 170.47 419.072 173.554L415.441 172.793C416.573 170.216 418.281 168.196 420.565 166.731C422.851 165.267 425.476 164.536 428.444 164.536ZM467.683 196.805V190.89L466.921 189.426V178.533C466.921 176.776 466.384 175.419 465.311 174.462C464.237 173.506 462.529 173.027 460.187 173.027C458.664 173.027 457.121 173.272 455.56 173.759C453.997 174.248 452.671 174.921 451.577 175.78L447.829 168.225C449.624 167.054 451.781 166.146 454.3 165.501C456.819 164.857 459.327 164.536 461.825 164.536C466.98 164.536 470.972 165.716 473.803 168.079C476.633 170.441 478.049 174.14 478.049 179.177V196.805H467.683ZM458.312 197.333C455.775 197.333 453.627 196.903 451.869 196.044C450.112 195.185 448.776 194.014 447.857 192.53C446.941 191.047 446.481 189.387 446.481 187.552C446.481 185.6 446.979 183.911 447.975 182.486C448.971 181.061 450.503 179.967 452.572 179.206C454.641 178.445 457.316 178.064 460.596 178.064H468.093V183.862H462.119C460.323 183.862 459.064 184.155 458.341 184.741C457.619 185.326 457.257 186.108 457.257 187.083C457.257 188.06 457.629 188.84 458.371 189.426C459.112 190.012 460.128 190.304 461.416 190.304C462.627 190.304 463.729 190.002 464.725 189.397C465.721 188.792 466.453 187.864 466.921 186.615L468.444 190.714C467.859 192.901 466.716 194.551 465.017 195.663C463.32 196.776 461.084 197.333 458.312 197.333ZM496.615 197.333C493.92 197.333 491.295 197.02 488.737 196.396C486.18 195.771 484.12 194.99 482.559 194.053L485.897 186.439C487.38 187.337 489.117 188.05 491.109 188.577C493.1 189.104 495.053 189.367 496.967 189.367C498.84 189.367 500.139 189.172 500.86 188.782C501.583 188.391 501.944 187.864 501.944 187.2C501.944 186.576 501.603 186.117 500.919 185.824C500.236 185.531 499.337 185.307 498.225 185.151C497.112 184.994 495.892 184.818 494.565 184.624C493.237 184.428 491.9 184.165 490.553 183.833C489.205 183.501 487.976 182.993 486.863 182.31C485.751 181.627 484.863 180.7 484.199 179.528C483.535 178.357 483.203 176.873 483.203 175.077C483.203 173.047 483.799 171.241 484.989 169.66C486.18 168.079 487.927 166.829 490.231 165.912C492.535 164.994 495.345 164.536 498.664 164.536C500.891 164.536 503.145 164.76 505.429 165.209C507.712 165.658 509.636 166.331 511.197 167.229L507.86 174.785C506.297 173.886 504.736 173.272 503.175 172.94C501.612 172.607 500.128 172.442 498.723 172.442C496.849 172.442 495.531 172.657 494.769 173.086C494.008 173.515 493.628 174.042 493.628 174.667C493.628 175.292 493.96 175.771 494.623 176.102C495.287 176.434 496.176 176.688 497.288 176.863C498.4 177.039 499.621 177.215 500.948 177.391C502.276 177.566 503.613 177.83 504.96 178.181C506.307 178.533 507.537 179.05 508.651 179.733C509.763 180.416 510.651 181.334 511.315 182.486C511.979 183.638 512.311 185.112 512.311 186.908C512.311 188.86 511.715 190.617 510.524 192.178C509.333 193.74 507.576 194.99 505.253 195.927C502.929 196.864 500.051 197.333 496.615 197.333Z" fill="#4F4C4C"/>
</svg>
